<?xml version="1.0" encoding="UTF-8" standalone="no"?>
<!-- Generator: Adobe Illustrator 14.0.0, SVG Export Plug-In  -->

<svg
   xmlns:dc="http://purl.org/dc/elements/1.1/"
   xmlns:cc="http://creativecommons.org/ns#"
   xmlns:rdf="http://www.w3.org/1999/02/22-rdf-syntax-ns#"
   xmlns:svg="http://www.w3.org/2000/svg"
   xmlns="http://www.w3.org/2000/svg"
   xmlns:sodipodi="http://sodipodi.sourceforge.net/DTD/sodipodi-0.dtd"
   xmlns:inkscape="http://www.inkscape.org/namespaces/inkscape"
   version="1.1"
   x="0px"
   y="0px"
   width="686.18805"
   height="191.18677"
   viewBox="-42.099 -9.411 686.18805 191.18677"
   enable-background="new -42.099 -9.411 750 200"
   xml:space="preserve"
   id="svg2"
   inkscape:version="0.91 r13725"
   sodipodi:docname="pluckeye.svg"><metadata
     id="metadata30"><rdf:RDF><cc:Work
         rdf:about=""><dc:format>image/svg+xml</dc:format><dc:type
           rdf:resource="http://purl.org/dc/dcmitype/StillImage" /><dc:title></dc:title></cc:Work></rdf:RDF></metadata><sodipodi:namedview
     pagecolor="#ffffff"
     bordercolor="#666666"
     borderopacity="1"
     objecttolerance="10"
     gridtolerance="10"
     guidetolerance="10"
     inkscape:pageopacity="0"
     inkscape:pageshadow="2"
     inkscape:window-width="1920"
     inkscape:window-height="1029"
     id="namedview28"
     showgrid="false"
     fit-margin-top="0"
     fit-margin-left="0"
     fit-margin-right="0"
     fit-margin-bottom="0"
     inkscape:zoom="0.44533333"
     inkscape:cx="347.58506"
     inkscape:cy="95.59337"
     inkscape:window-x="0"
     inkscape:window-y="1"
     inkscape:window-maximized="1"
     inkscape:current-layer="svg2" /><defs
     id="defs4" /><path
     d="m 103.51877,137.01981 c 0,6.15645 -5.323716,11.48006 -11.480166,11.48006 -6.48901,0 -11.14739,-5.32361 -11.14739,-11.48006 l 0,-107.47782 c 0,-6.322719 4.65838,-11.147401 11.14739,-11.147401 6.15545,0 11.480166,4.824682 11.480166,11.147401 l 0,107.47782 z"
     id="path6"
     inkscape:connector-curvature="0" /><path
     d="m 174.22876,68.473171 c 0,-6.155351 5.32372,-10.981066 11.48006,-10.981066 6.48901,0 10.98111,4.825715 10.98111,10.981066 l 0,68.546639 c 0,6.15645 -4.4921,11.48006 -10.98111,11.48006 -3.82665,0 -7.48702,-2.1633 -9.48304,-5.15733 -5.82367,3.3277 -12.64435,5.15733 -19.79881,5.15733 -22.79373,0 -41.26086,-18.46802 -41.26086,-41.09447 l 0,-38.432202 c 0,-6.489043 4.99205,-11.48006 11.31378,-11.48006 6.32162,0 11.48006,4.991017 11.48006,11.48006 l 0,38.432202 c 0,10.14838 8.48503,17.96907 18.46702,17.96907 9.9821,0 17.80179,-7.81969 17.80179,-17.96907 l 0,-38.932229 z"
     id="path8"
     inkscape:connector-curvature="0" /><path
     d="m 249.76763,148.49987 c -25.62148,0 -45.58657,-20.29776 -45.58657,-45.2549 0,-25.621429 19.96509,-45.752865 45.58657,-45.752865 7.32074,0 14.3087,1.663328 20.9631,4.991017 5.65739,3.162387 7.98608,10.482061 4.82466,15.972083 -3.3277,5.657379 -9.64932,7.986036 -15.30671,4.99205 -3.16142,-1.663328 -7.32074,-2.496025 -10.48205,-2.496025 -12.81074,0 -22.62745,9.650408 -22.62745,22.29374 0,12.1464 9.81571,21.79583 22.62745,21.79583 3.16131,0 7.32063,-0.83173 10.48205,-2.32869 5.65739,-2.66236 11.97901,-0.66634 15.30671,4.65838 3.16142,5.65739 0.83173,12.97813 -4.82466,16.30472 -6.6554,2.99503 -13.64236,4.82466 -20.9631,4.82466 z"
     id="path10"
     inkscape:connector-curvature="0" /><path
     d="m 361.5732,131.86248 c 3.3277,5.65739 0.49906,12.1464 -4.65827,15.14043 -5.82378,3.3277 -12.97813,0.83162 -16.13844,-4.82466 l -25.95415,-34.93924 -7.65341,5.32372 0,24.45708 c 0,6.15645 -5.32361,11.48006 -11.48006,11.48006 -6.48801,0 -11.14628,-5.32361 -11.14628,-11.48006 l 0,-107.47782 c 0,-6.322719 4.65827,-11.147401 11.14628,-11.147401 6.15645,0 11.48006,4.824682 11.48006,11.147401 l 0,54.570594 35.93725,-24.124454 c 4.99105,-3.993018 12.97702,-2.32969 16.13844,2.32969 3.82565,5.656346 2.32858,12.977064 -3.16242,16.803747 l -21.96111,14.974084 27.45211,37.766829 z"
     id="path12"
     inkscape:connector-curvature="0" /><path
     d="m 430.29039,91.433302 c -2.66136,-4.824693 -6.82168,-8.152382 -12.31168,-10.148369 -1.99702,-0.832697 -3.99304,-0.832697 -5.99006,-0.832697 -12.1454,0 -22.46017,10.315726 -22.46017,22.461064 0,12.31179 10.31477,22.29378 22.46017,22.29378 3.16242,0 6.6554,-1.16429 9.98299,-2.66125 5.65739,-2.66236 13.14341,-0.66645 15.80577,4.82466 2.66136,5.32372 0.66534,12.81074 -4.82466,15.4731 -6.6554,3.49398 -14.3087,5.65739 -20.9641,5.65739 -25.12142,0 -45.58657,-20.63043 -45.58657,-45.58657 0,-25.289836 20.46515,-45.421272 45.58657,-45.421272 42.25987,1.496993 44.92123,39.264824 44.92123,45.421272 0,6.15534 -5.82378,11.64534 -11.81273,11.64534 l -32.60955,0 c -6.48801,0 -11.31367,-5.49 -11.31367,-11.64534 0,-6.821678 4.82566,-11.480075 11.31367,-11.480075 l 17.80279,0 z"
     id="path14"
     inkscape:connector-curvature="0" /><path
     d="m 523.46466,68.973198 c 0,-6.322708 4.99205,-11.48006 11.31378,-11.48006 6.32162,0 11.31367,5.157352 11.31367,11.48006 l 0,79.527782 c 0,18.63341 -14.97404,33.27478 -33.60745,33.27478 l -7.98608,0 c -6.15534,0 -11.31267,-5.15733 -11.31267,-11.31267 0,-6.32273 5.15733,-11.14739 11.31267,-11.14739 l 7.98608,0 c 6.15534,0 10.98,-4.65838 10.98,-10.81472 l 0,-4.15943 c -5.32361,2.66236 -11.31267,4.15943 -17.80168,4.15943 -22.79384,0 -41.26097,-18.46813 -41.26097,-41.09458 l 0,-38.432169 c 0,-6.489043 4.99105,-11.48006 11.31278,-11.48006 6.32273,0 11.48006,4.991017 11.48006,11.48006 l 0,38.432169 c 0,10.14838 8.48503,17.96907 18.46702,17.96907 9.9831,0 17.80179,-7.81969 17.80179,-17.96907 l 0,-38.433202 z"
     id="path16"
     inkscape:connector-curvature="0" /><path
     d="m 617.46955,91.433302 c -2.66125,-4.824693 -6.82168,-8.152382 -12.31168,-10.148369 -1.99702,-0.832697 -3.99304,-0.832697 -5.99006,-0.832697 -12.1454,0 -22.46006,10.315726 -22.46006,22.461064 0,12.31179 10.31466,22.29378 22.46006,22.29378 3.16242,0 6.6554,-1.16429 9.9831,-2.66125 5.65739,-2.66236 13.14341,-0.66645 15.80577,4.82466 2.66125,5.32372 0.66523,12.81074 -4.82477,15.4731 -6.65529,3.49398 -14.3087,5.65739 -20.9641,5.65739 -25.12142,0 -45.58657,-20.63043 -45.58657,-45.58657 0,-25.289836 20.46515,-45.421272 45.58657,-45.421272 42.25987,1.496993 44.92123,39.264824 44.92123,45.421272 0,6.15534 -5.82367,11.64534 -11.81273,11.64534 l -32.60955,0 c -6.48801,0 -11.31367,-5.49 -11.31367,-11.64534 0,-6.821678 4.82566,-11.480075 11.31367,-11.480075 l 17.80279,0 z"
     id="path18"
     inkscape:connector-curvature="0" /><path
     d="m 51.108382,19.301673 -8.942715,23.461191 c 6.562397,8.976804 8.571824,20.980672 4.29883,32.190053 C 39.753326,92.559404 20.179776,101.32959 2.573289,94.617382 -15.035264,87.907244 -23.804412,68.331628 -17.091176,50.724108 -12.559899,38.835969 -2.162544,30.987333 9.53138,29.201056 L 18.308793,6.177912 C -5.876619,4.616861 -29.260333,18.776843 -38.34975,42.620299 -49.521942,71.932062 -34.840231,104.70061 -5.531564,115.87488 23.778144,127.04815 56.549842,112.36646 67.723037,83.056737 76.584164,59.811465 69.170454,34.400772 51.108382,19.301673 Z"
     id="path20"
     inkscape:connector-curvature="0"
     style="fill:#09476b" /><path
     d="m 42.868195,-8.6370774 0,0 C 36.78,-10.957473 29.913856,-7.8818645 27.591398,-1.7936702 L 14.964564,31.330322 c -2.322458,6.089228 0.75419,12.955371 6.843418,15.275764 l 0,0 c 6.087162,2.322459 12.954327,-0.753145 15.275753,-6.843406 L 49.710568,6.638685 C 52.031994,0.55048618 48.95639,-6.3146169 42.868195,-8.6370774 Z"
     id="path22"
     inkscape:connector-curvature="0"
     style="fill:#09476b" /><path
     d="m -19.394008,100.63837 c 0.004,-0.12185 0.01855,-0.2407 0.01855,-0.36466 l 0,-35.448502 c 0,-6.515901 -5.106724,-11.835456 -11.361253,-11.835456 -6.255561,0 -11.362288,5.319555 -11.362288,11.835456 l 0,35.449502 c 0,0.15195 0.01756,0.30068 0.02169,0.45152 -0.0021,0.12196 -0.01756,0.2407 -0.01756,0.36366 l 0,35.44952 c 0,6.51489 5.106728,11.8355 11.361256,11.8355 6.254528,0 11.362285,-5.32061 11.362285,-11.8355 l 0,-35.44952 c 0,-0.15295 -0.01655,-0.30068 -0.02277,-0.45152 z"
     id="path24"
     inkscape:connector-curvature="0"
     style="fill:#09476b" /><path
     d="m 10.470487,76.427184 0,0 c -6.11196,-2.32969 -9.17414,-9.165865 -6.843406,-15.27783 l 0,0 c 2.32969,-6.109888 9.164832,-9.173096 15.275753,-6.843406 l 0,0 c 6.111954,2.329689 9.175171,9.16381 6.844439,15.276797 l 0,0 c -2.32969,6.111954 -9.164832,9.174129 -15.276786,6.844439 z"
     id="path26"
     inkscape:connector-curvature="0" /></svg>